<?xml version="1.0" encoding="UTF-8"?>
<svg width="798.45" height="97.908" version="1.1" viewBox="0 0 748.55 91.789" xmlns="http://www.w3.org/2000/svg" xmlns:cc="http://creativecommons.org/ns#" xmlns:dc="http://purl.org/dc/elements/1.1/" xmlns:rdf="http://www.w3.org/1999/02/22-rdf-syntax-ns#">
 <g transform="translate(-193.81 -475.57)">
  <g transform="matrix(2.6168 0 0 2.6168 -305.54 -891.37)" clip-rule="evenodd" fill="#a69038" shape-rendering="geometricPrecision" stroke-width=".49446">
   <path d="m193.81 544.76v-9.7147c0-6.964 3.4887-10.292 11.057-10.292 2.2677 0 4.8976 0.33545 6.5615 0.85876 0.56356 0.20127 0.68432 0.46963 0.68432 1.0332v3.113c0 0.68433-0.26836 0.83193-1.1003 0.61724-1.3686-0.34888-3.5692-0.68433-5.3538-0.68433-4.2133 0-5.8906 1.8114-5.8906 6.0247v8.5876c0 4.2536 1.5565 5.9711 5.9577 5.9711 2.1737 0 4.4146-0.53672 5.9711-1.1405 0.37571-0.16102 0.99294 0.0268 0.83192 0.67091l-0.60381 3.3814c-0.10735 0.64407-0.37571 0.87218-0.87218 1.0734-1.5968 0.56356-3.7571 0.89901-6.3468 0.89901-7.8496 0-10.896-2.9922-10.896-10.399" image-rendering="optimizeQuality"/>
   <path d="m237.3 525.81v28.299c0 0.4428-0.2281 0.64408-0.72457 0.64408h-0.64408c-2.9252 0-4.589-1.5297-4.589-4.8305v-7.7423h-9.0036v11.929c0 0.4428-0.22811 0.64408-0.72458 0.64408h-0.64407c-2.9252 0-4.589-1.5297-4.589-4.8305v-24.032c0-0.61723 0.1476-0.72457 0.68432-0.72457h4.6293c0.45622 0 0.64407 0.18785 0.64407 0.64407v11.62h9.0036v-11.62c0-0.41597 0.18786-0.64407 0.64407-0.64407h4.6293c0.49647 0 0.68432 0.18785 0.68432 0.64407" image-rendering="optimizeQuality"/>
   <path d="m255.87 544.27c-0.83193-4.4012-2.2006-9.755-3.3814-14.277h-0.26837c-1.1271 4.5219-2.5092 9.8758-3.3009 14.277zm-15.337 9.755c2.6165-10.064 5.1928-19.939 7.702-27.762 0.2281-0.75141 0.72458-1.0869 1.637-1.0869h4.9379c1.06 0 1.4357 0.33546 1.6638 1.0869 2.4689 7.8228 5.1257 17.699 7.7557 27.802 0.10734 0.49647-0.0805 0.68432-0.64407 0.68432h-4.4414c-0.61723 0-0.99294-0.26836-1.0734-0.64407l-1.1271-5.166h-9.017c-0.41596 1.7578-0.75142 3.4619-1.1271 5.2465-0.0805 0.33546-0.42938 0.56356-0.91244 0.56356h-4.7098c-0.60382 0-0.76484-0.26836-0.64407-0.72457" image-rendering="optimizeQuality"/>
   <path d="m267.26 554.11c0-7.9838 0.33546-19.027 0.91244-28.259 0.0403-0.41596 0.26836-0.68432 0.68432-0.68432h4.5622c0.56356 0 0.75141 0.0805 1.0198 0.57698l7.1384 14.545h0.16102l6.6688-14.545c0.26836-0.49647 0.42938-0.57698 1.0332-0.57698h4.5488c0.41596 0 0.61724 0.26836 0.65749 0.68432 0.67091 9.2317 1.1003 20.275 1.1003 28.259 0 0.41596-0.18786 0.64407-0.68433 0.64407h-4.3609c-0.49647 0-0.738-0.18786-0.738-0.64407 0-6.9908-0.0671-14.545-0.2952-19.899h-0.26836l-5.7698 12.492c-0.26836 0.45622-0.57698 0.76484-1.1003 0.76484h-1.8651c-0.52331 0-0.83192-0.30862-1.1003-0.76484l-6.1187-12.492h-0.26836c-0.1476 5.3538-0.1476 12.492-0.1476 19.899 0 0.45621-0.22811 0.64407-0.72458 0.64407h-4.3609c-0.49647 0-0.68433-0.22811-0.68433-0.64407" image-rendering="optimizeQuality"/>
   <path d="m313.59 534.32c0-1.7846-0.41596-2.8446-1.1405-3.4887-0.83193-0.72458-1.8249-0.91244-3.9047-0.91244h-2.1737v9.6074h1.9054c2.3482 0 3.4216-0.22811 4.2536-1.0332 0.72457-0.68432 1.06-1.8651 1.06-3.8644zm6.0382-0.0403v0.41596c0 3.4619-0.95269 5.9576-2.9252 7.5142-1.7041 1.3821-4.173 2.0664-7.4873 2.0664h-2.8446v9.8355c0 0.4428-0.22811 0.64407-0.72458 0.64407h-0.64407c-2.9252 0-4.589-1.5162-4.589-4.8305v-23.992c0-0.57698 0.18785-0.76484 0.83192-0.76484h7.9704c3.6497 0 6.0113 0.56357 7.5947 1.8249 1.7175 1.3284 2.8178 3.4887 2.8178 7.286" image-rendering="optimizeQuality"/>
   <path d="m321.6 554.11v-3.0057c0-0.41596 0.22811-0.64407 0.64407-0.64407h3.0057v-20.999h-3.0057c-0.45622 0-0.64407-0.22811-0.64407-0.64407v-2.9654c0-0.4428 0.22811-0.68432 0.68432-0.68432h12.184c0.45622 0 0.76484 0.1476 0.64407 0.68432l-0.3757 2.9654c-0.0671 0.49647-0.30862 0.64407-0.79167 0.64407h-2.697v20.999h2.9654c0.41596 0 0.60381 0.16102 0.60381 0.64407v3.0057c0 0.41596-0.2281 0.64407-0.68432 0.64407h-11.888c-0.37571 0-0.64407-0.22811-0.64407-0.64407" image-rendering="optimizeQuality"/>
   <path d="m352.89 549.09c0.91244-0.91243 1.4089-2.5092 1.4089-4.4012v-9.4598c0-2.1737-0.53673-3.4887-1.4492-4.4012-0.76483-0.76484-1.9993-1.1405-3.4887-1.1405-1.4894 0-2.7776 0.3757-3.5424 1.1405-0.91244 0.91243-1.3955 2.2274-1.3955 4.4012v9.4598c0 1.892 0.48305 3.4887 1.3955 4.4012 0.76483 0.75142 2.053 1.1405 3.5424 1.1405 1.4894 0 2.7776-0.38912 3.529-1.1405m-11.54 3.5692c-1.8651-1.637-2.8849-4.106-2.8849-7.3666v-10.681c0-3.7168 1.3955-6.4139 3.8242-8.0509 1.8249-1.2076 4.2133-1.8114 7.0714-1.8114 2.952 0 5.4612 0.68433 7.3263 2.0127 2.2408 1.6236 3.5692 4.2536 3.5692 7.8496v10.681c0 3.6095-1.2479 6.226-3.529 7.863-1.8249 1.3284-4.3341 2.0127-7.3666 2.0127-3.3814 0-6.1187-0.83193-8.0106-2.5092" image-rendering="optimizeQuality"/>
   <path d="m386.47 525.81v28.299c0 0.40255-0.30861 0.64408-0.72458 0.64408h-2.9654c-0.83193 0-1.2076-0.34888-1.476-0.80509l-10.56-18.262h-0.22811v18.423c0 0.4428-0.22811 0.64408-0.72458 0.64408h-0.25495c-2.697 0-4.2535-1.5297-4.2535-4.8305v-24.112c0-0.41597 0.14759-0.64407 0.60381-0.64407h3.3411c0.68432 0 1.06 0.26836 1.2881 0.79167l10.493 18.034h0.21469v-18.182c0-0.45622 0.20127-0.64407 0.61724-0.64407h3.9449c0.49647 0 0.68432 0.18785 0.68432 0.64407" image-rendering="optimizeQuality"/>
   <path d="m392.39 554.22c-0.68433-0.22811-0.80509-0.53673-0.91243-1.0198l-0.72458-3.8376c-0.0671-0.53672 0.30861-0.72458 0.95268-0.45621 1.5162 0.64407 4.173 1.3284 6.3468 1.3284 3.3009 0 5.0452-1.3284 5.0452-3.6095v-0.18785c0-2.053-0.93927-3.3143-3.8376-4.3341l-1.8249-0.64407c-3.8644-1.3686-6.226-4.0254-6.226-8.3595v-0.26836c0-5.3807 4.1865-8.0777 10.064-8.0777 1.7444 0 3.7973 0.2952 5.166 0.72458 0.68432 0.21469 0.76483 0.52331 0.76483 1.06v3.0325c0 0.64407-0.45621 0.79167-1.1405 0.64407-1.3284-0.2952-2.8849-0.5233-4.5622-0.5233-2.6568 0-4.4414 0.83192-4.4414 3.2338v0.1476c0 2.0798 0.91243 3.1398 3.274 3.9852l1.9993 0.75142c4.5622 1.7175 6.5078 4.0657 6.5078 8.279v0.38912c0 5.2331-3.7705 8.695-10.184 8.695-2.053 0-4.6293-0.37571-6.2663-0.95269" image-rendering="optimizeQuality"/>
   <path d="m433.63 525.81v28.299c0 0.4428-0.22811 0.64408-0.72458 0.64408h-0.64407c-2.9252 0-4.589-1.5297-4.589-4.8305v-7.7423h-9.0036v11.929c0 0.4428-0.22811 0.64408-0.72458 0.64408h-0.64407c-2.9252 0-4.589-1.5297-4.589-4.8305v-24.032c0-0.61723 0.1476-0.72457 0.68432-0.72457h4.6293c0.45622 0 0.64407 0.18785 0.64407 0.64407v11.62h9.0036v-11.62c0-0.41597 0.18786-0.64407 0.64407-0.64407h4.6293c0.49647 0 0.68433 0.18785 0.68433 0.64407" image-rendering="optimizeQuality"/>
   <path d="m437.81 554.11v-3.0057c0-0.41596 0.22811-0.64407 0.64407-0.64407h3.0057v-20.999h-3.0057c-0.45621 0-0.64407-0.22811-0.64407-0.64407v-2.9654c0-0.4428 0.22811-0.68432 0.68433-0.68432h12.184c0.45622 0 0.76484 0.1476 0.64408 0.68432l-0.37571 2.9654c-0.0671 0.49647-0.30862 0.64407-0.79167 0.64407h-2.697v20.999h2.9654c0.41596 0 0.60382 0.16102 0.60382 0.64407v3.0057c0 0.41596-0.22811 0.64407-0.68433 0.64407h-11.888c-0.37571 0-0.64407-0.22811-0.64407-0.64407" image-rendering="optimizeQuality"/>
   <path d="m468.45 534.32c0-1.7846-0.41596-2.8446-1.1405-3.4887-0.83192-0.72458-1.8249-0.91244-3.9047-0.91244h-2.1737v9.6074h1.9054c2.3482 0 3.4216-0.22811 4.2536-1.0332 0.72458-0.68432 1.06-1.8651 1.06-3.8644zm6.0382-0.0403v0.41596c0 3.4619-0.95269 5.9576-2.9252 7.5142-1.7041 1.3821-4.173 2.0664-7.4873 2.0664h-2.8446v9.8355c0 0.4428-0.22811 0.64407-0.72458 0.64407h-0.64407c-2.9252 0-4.589-1.5162-4.589-4.8305v-23.992c0-0.57698 0.18786-0.76484 0.83193-0.76484h7.9704c3.6497 0 6.0113 0.56357 7.5947 1.8249 1.7175 1.3284 2.8178 3.4887 2.8178 7.286" image-rendering="optimizeQuality"/>
  </g>
 </g>
</svg>
